<svg xmlns="http://www.w3.org/2000/svg" width="1442" height="393" viewBox="0 0 1442 393" fill="none">
  <mask id="path-1-outside-1_675_5732" maskUnits="userSpaceOnUse" x="0" y="0.259766" width="1442" height="393" fill="black">
    <rect fill="white" y="0.259766" width="1442" height="393"/>
    <path fill-rule="evenodd" clip-rule="evenodd" d="M23.9124 45.7686L23.9124 11.2598C23.9124 5.73691 28.3895 1.25976 33.9124 1.25976L180.296 1.25977C185.819 1.25977 190.296 5.73692 190.296 11.2598V45.7686H1441V371.769C1441 382.814 1432.05 391.769 1421 391.769H21C9.95432 391.769 1 382.814 1 371.769V45.7686H23.9124Z"/>
  </mask>
  <path fill-rule="evenodd" clip-rule="evenodd" d="M23.9124 45.7686L23.9124 11.2598C23.9124 5.73691 28.3895 1.25976 33.9124 1.25976L180.296 1.25977C185.819 1.25977 190.296 5.73692 190.296 11.2598V45.7686H1441V371.769C1441 382.814 1432.05 391.769 1421 391.769H21C9.95432 391.769 1 382.814 1 371.769V45.7686H23.9124Z" fill="url(#paint0_linear_675_5732)" fill-opacity="0.9"/>
  <path d="M23.9124 45.7686V46.7686H24.9124V45.7686H23.9124ZM23.9124 11.2598H24.9124H23.9124ZM33.9124 1.25976V0.259756V1.25976ZM180.296 1.25977V0.259769V1.25977ZM190.296 45.7686H189.296V46.7686H190.296V45.7686ZM1441 45.7686H1442V44.7686H1441V45.7686ZM1 45.7686V44.7686H0V45.7686H1ZM24.9124 45.7686L24.9124 11.2598H22.9124L22.9124 45.7686H24.9124ZM24.9124 11.2598C24.9124 6.28919 28.9418 2.25976 33.9124 2.25976V0.259756C27.8372 0.259755 22.9124 5.18462 22.9124 11.2598H24.9124ZM33.9124 2.25976L180.296 2.25977V0.259769L33.9124 0.259756V2.25976ZM180.296 2.25977C185.267 2.25977 189.296 6.28921 189.296 11.2598H191.296C191.296 5.18464 186.371 0.259769 180.296 0.259769V2.25977ZM189.296 11.2598V45.7686H191.296V11.2598H189.296ZM190.296 46.7686H1441V44.7686H190.296V46.7686ZM1440 45.7686V371.769H1442V45.7686H1440ZM1440 371.769C1440 382.262 1431.49 390.769 1421 390.769V392.769C1432.6 392.769 1442 383.367 1442 371.769H1440ZM1421 390.769H21V392.769H1421V390.769ZM21 390.769C10.5066 390.769 2 382.262 2 371.769H0C0 383.367 9.40203 392.769 21 392.769V390.769ZM2 371.769V45.7686H0V371.769H2ZM1 46.7686H23.9124V44.7686H1V46.7686Z" fill="url(#paint1_linear_675_5732)" fill-opacity="0.45" mask="url(#path-1-outside-1_675_5732)"/>
  <defs>
    <linearGradient id="paint0_linear_675_5732" x1="839.519" y1="-17.2195" x2="794.877" y2="449.042" gradientUnits="userSpaceOnUse">
      <stop stop-color="#2D3352"/>
      <stop offset="0.811342" stop-color="#363B57"/>
      <stop offset="1" stop-color="#272F58"/>
    </linearGradient>
    <linearGradient id="paint1_linear_675_5732" x1="1" y1="34.2792" x2="1441" y2="32.6606" gradientUnits="userSpaceOnUse">
      <stop stop-color="white"/>
      <stop offset="1" stop-color="white" stop-opacity="0"/>
    </linearGradient>
  </defs>
</svg>
