
<svg width="110" height="110" viewBox="0 0 110 110" fill="none" xmlns="http://www.w3.org/2000/svg">
<path fill-rule="evenodd" clip-rule="evenodd" d="M35.0178 32.4418C36.9272 22.2103 45.0529 14.5234 54.7872 14.5234C65.94 14.5234 74.9811 24.6136 74.9811 37.0605C74.9811 44.4004 71.8371 50.9208 66.9701 55.0358L66.9197 55.1067L57.1572 42.9036L65.6902 37.6331C65.7777 37.008 65.8232 36.3673 65.8232 35.7148C65.8232 28.9127 60.8823 23.3984 54.7874 23.3984C48.955 23.3984 44.1793 28.4479 43.7788 34.8434C41.1267 33.4747 38.161 32.6287 35.0178 32.4418ZM30.5015 35.1121C28.5059 35.2688 26.6557 35.6335 25.0371 36.1304C16.6206 38.7144 9.61994 47.1245 11.0567 58.1071C11.8583 64.2343 15.6247 68.5399 19.7775 71.1801C23.8601 73.7756 28.6972 75.0386 32.7474 75.0386L35.0984 63.5088C31.5665 64.2929 27.5856 64.2943 25.1426 62.7412C22.7699 61.2327 21.2912 59.2483 20.9722 56.8099C20.2375 51.1933 23.69 47.0046 27.972 45.6901C32.7254 44.2307 40.9063 44.5776 46.6884 52.3123C46.9813 52.7041 47.271 53.0922 47.558 53.4765L47.558 53.4765L47.5581 53.4766C47.9435 53.9928 48.3237 54.502 48.6993 55.0039H48.6979C50.4656 57.2111 52.4226 59.8297 54.7529 62.9479L54.7531 62.9482L55.3022 63.6829C61.9472 72.5719 70.8704 75.1924 78.1855 74.9673C66.873 73.9451 58.9905 62.785 53.7067 55.0078H53.7097C48.1507 46.6187 44.6506 41.6533 37.7311 37.5136C35.0803 35.9276 32.4846 35.3147 30.5015 35.1121ZM79.2656 74.913C77.266 74.7248 74.6118 74.1207 71.8997 72.4981C64.9813 68.3591 61.4812 63.3946 55.9238 55.0078H55.9268C50.6544 47.2473 42.7938 36.115 31.5186 35.0512C38.8879 34.7457 47.963 37.3157 54.6978 46.3249L55.2469 47.0597L55.2471 47.0599C57.5774 50.1781 59.5344 52.7967 61.3021 55.0039H61.3007C61.6763 55.5059 62.0566 56.0151 62.442 56.5314C62.729 56.9156 63.0187 57.3037 63.3116 57.6955C69.0937 65.4302 77.2746 65.7771 82.028 64.3178C86.31 63.0032 89.7626 58.8145 89.0278 53.1979C88.7088 50.7596 87.2301 48.7751 84.8574 47.2666C82.4144 45.7135 78.4335 45.7149 74.9016 46.499L77.2526 34.9692C81.3028 34.9692 86.1399 36.2322 90.2225 38.8277C94.3753 41.4679 98.1417 45.7735 98.9433 51.9007C100.38 62.8833 93.3794 71.2934 84.9629 73.8774C83.2815 74.3936 81.3502 74.7671 79.2656 74.913ZM55.1623 95.4766C65.076 95.4766 73.3211 87.5039 75.0309 76.9901C71.86 76.818 68.8679 75.9841 66.1938 74.626C66.032 81.2706 61.1549 86.6016 55.1621 86.6016C49.0672 86.6016 44.1263 81.0873 44.1263 74.2852C44.1263 73.6327 44.1718 72.992 44.2593 72.3669L52.7923 67.0964L43.0299 54.8933L42.9794 54.9642C38.1124 59.0792 34.9685 65.5996 34.9685 72.9395C34.9685 85.3864 44.0095 95.4766 55.1623 95.4766Z" fill="black"/>
</svg>
